# xmcd
#
# Track frame offsets:
#	150
#	13909
#	28748
#	43167
#	56882
#	70330
#	82139
#	94817
#	107315
#	119862
#	131885
#	143519
#	157810
#	170148
#	181794
#	194968
#	205577
#	217612
#	230345
#	243186
#
# Disc length: 3403 seconds
#
# Revision: 1
# Processed by: cddbd v1.5.2PL0 Copyright (c) Steve Scherf et al.
# Submitted via: audiograbber 1.83.01
#
DISCID=220d4914
DTITLE=Lonnie Johnson - Why Should I Cry
DYEAR=2007
DGENRE=Blues
TTITLE0=Lazy Woman Blues
TTITLE1=He's A Jelly-Roll Baker
TTITLE2=The Victim Of Love
TTITLE3=Tomorrow Night
TTITLE4=Friendless Blues
TTITLE5=What A Woman
TTITLE6=Falling Rain Blues
TTITLE7=Why Should I Cry
TTITLE8=It Was All In Vain
TTITLE9=Me And My Crazy Self
TTITLE10=Seven Long Days
TTITLE11=I'm Guilty
TTITLE12=Just Another Day
TTITLE13=You Can't Buy Me Love
TTITLE14=Can't Sleep Any More
TTITLE15=Don't Make Me Cry, Baby
TTITLE16=Can't Sleep Any More
TTITLE17=My Woman Is Gone
TTITLE18=Will You Remember
TTITLE19=Stick With It Baby
EXTD=
EXTT0=
EXTT1=
EXTT2=
EXTT3=
EXTT4=
EXTT5=
EXTT6=
EXTT7=
EXTT8=
EXTT9=
EXTT10=
EXTT11=
EXTT12=
EXTT13=
EXTT14=
EXTT15=
EXTT16=
EXTT17=
EXTT18=
EXTT19=
PLAYORDER=
